<?xml version="1.0" encoding="utf-8"?>
<!-- Generator: Adobe Illustrator 25.2.3, SVG Export Plug-In . SVG Version: 6.00 Build 0)  -->
<svg version="1.1" id="Calque_1" xmlns="http://www.w3.org/2000/svg" xmlns:xlink="http://www.w3.org/1999/xlink" x="0px" y="0px"
	 viewBox="0 0 115.2 33.4" style="enable-background:new 0 0 115.2 33.4;" xml:space="preserve">
<style type="text/css">
	.st0{fill:#469E78;}
</style>
<g>
	<path class="st0" d="M10.2,23c0,1.1-0.9,2-2,2c-0.3,0-0.6,0-0.9,0c-1.1-0.2-2.1-0.6-2.9-1.5c-0.7-0.8-1.1-1.9-1.1-3v-8.3H2
		c-1.1,0-2-0.9-2-2c0-1.1,0.9-2,2-2h1.4V2c0-1.1,0.9-2,2-2c1.1,0,2,0.9,2,2v6.3h1.1c1.1,0,2,0.9,2,2c0,1.1-0.9,2-2,2H7.3v7.8
		c0.1,0.3,0,0.7,0.2,0.9C7.7,21.1,8,21,8.3,21C9.4,21,10.2,21.9,10.2,23z"/>
	<path class="st0" d="M26.1,13.6c-0.8,0.8-2,0.9-2.8,0.1c-0.7-0.7-1.7-1.1-2.7-1.1c-2.2,0-4.1,1.9-4.1,4.2v6.2c0,1.1-0.9,2-2,2
		c-1.1,0-2-0.9-2-2V10.5c0-1.1,0.9-1.9,2-1.9c0.9,0,1.6,0.6,1.9,1.4c1.2-0.8,2.7-1.2,4.2-1.2c2,0,4,0.8,5.4,2.2
		C26.8,11.6,26.9,12.8,26.1,13.6z"/>
	<path class="st0" d="M41.3,18H31.2c0.5,1.9,2.1,3.3,4.2,3.3c1.1,0,2.6-0.4,3.5-1.3c0.8-0.8,2-0.8,2.8,0c0.8,0.8,0.8,2,0,2.8
		c-1.8,1.7-4.3,2.3-6.2,2.3c-4.6,0-8.2-3.7-8.2-8.3c0-4.5,3.7-8.3,8.2-8.3c0.5,0,1,0,1.4,0.1c2.2,0.4,4.1,1.8,5.3,3.8
		c0.5,0.9,1.1,2.1,1.1,3.2c0,0.3-0.1,0.6-0.3,1C42.7,17.4,42.1,18,41.3,18z M31.7,14.6h7c-0.7-1.3-1.9-2-3.4-2
		C33.9,12.6,32.5,13.4,31.7,14.6z"/>
	<path class="st0" d="M60.6,16.8v6.2c0,1.1-0.9,2-1.9,2c-1.1,0-2-0.9-2-2v-6.2c0-2.3-1.7-4.2-3.8-4.2c-2.6,0-3.9,2.6-3.9,4.8v5.6
		c0,1.1-0.9,2-2,2c-1.1,0-2-0.9-2-2V10.5c0-1.1,0.9-2,2-2c0.9,0,1.6,0.6,1.8,1.4c1.2-0.8,2.5-1.2,4-1.2
		C57.1,8.7,60.6,12.3,60.6,16.8z"/>
	<path class="st0" d="M79,2.1v20.9c0,1.1-0.9,2-2,2c-0.9,0-1.6-0.6-1.9-1.4c-1.3,0.9-3,1.4-4.7,1.4c-4.6,0-8.3-3.7-8.3-8.3
		c0-4.6,3.8-8.3,8.3-8.3c1.7,0,3.3,0.5,4.6,1.4V2.1c0-1.1,0.9-2,2-2C78.1,0.1,79,1,79,2.1z M74.7,16.8c0-2.4-1.9-4.3-4.3-4.3
		c-2.4,0-4.3,1.9-4.3,4.3c0,2.4,1.9,4.3,4.3,4.3C72.8,21.1,74.7,19.2,74.7,16.8z"/>
	<path class="st0" d="M96.3,10.7v14.4c0,4.6-3.7,8.3-8.1,8.3c-2.4,0-4.6-1.1-6.1-2.9c-0.7-0.8-0.6-2.1,0.2-2.8
		c0.8-0.7,2-0.6,2.7,0.2c0.8,1,2,1.5,3.2,1.5c2.3,0,4.2-2,4.2-4.4v-1.4c-1.1,0.6-2.4,1-3.8,1c-4.1,0-7.5-3.6-7.5-8.1v-5.9
		c0-1.1,0.9-2,1.9-2s1.9,0.9,1.9,2v5.9c0,2.3,1.7,4.1,3.7,4.1c2.1,0,3.8-1.9,3.8-4.1v-6c0-1.1,0.9-2,1.9-2
		C95.4,8.7,96.3,9.6,96.3,10.7z"/>
	<path class="st0" d="M113.2,25.2h-12.1c-0.8,0-1.5-0.5-1.8-1.2c-0.3-0.7-0.2-1.5,0.4-2.1l8.9-9.3h-7.5c-1.1,0-2-0.9-2-2
		c0-1.1,0.9-2,2-2h12.1c0.8,0,1.5,0.5,1.8,1.2c0.3,0.7,0.2,1.5-0.4,2.1l-8.9,9.3h7.5c1.1,0,2,0.9,2,2
		C115.2,24.3,114.3,25.2,113.2,25.2z"/>
</g>
</svg>
