<?xml version="1.0" encoding="utf-8"?>
<!-- Generator: Adobe Illustrator 25.2.3, SVG Export Plug-In . SVG Version: 6.00 Build 0)  -->
<svg version="1.1" id="Calque_1" xmlns="http://www.w3.org/2000/svg" xmlns:xlink="http://www.w3.org/1999/xlink" x="0px" y="0px"
	 viewBox="0 0 15 15" style="enable-background:new 0 0 15 15;" xml:space="preserve">
<style type="text/css">
	.st0{fill:#3A3A3A;}
</style>
<path class="st0" d="M14.1,15L8.6,9.5c-0.4,0.4-0.9,0.6-1.5,0.8S6,10.7,5.4,10.7c-1.5,0-2.8-0.5-3.8-1.6S0,6.8,0,5.3
	s0.5-2.7,1.6-3.8S3.9,0,5.3,0s2.7,0.5,3.8,1.6s1.6,2.3,1.6,3.8c0,0.6-0.1,1.2-0.3,1.7c-0.2,0.6-0.5,1.1-0.9,1.6l5.5,5.5L14.1,15z
	 M5.3,9.4c1.1,0,2.1-0.4,2.9-1.2C9,7.4,9.4,6.5,9.4,5.3S9,3.2,8.2,2.4C7.4,1.6,6.5,1.2,5.3,1.2c-1.1,0-2.1,0.4-2.9,1.2
	C1.6,3.2,1.2,4.2,1.2,5.3s0.4,2.1,1.2,2.9C3.2,9,4.2,9.4,5.3,9.4z"/>
</svg>
