<?xml version="1.0" encoding="utf-8"?>
<!-- Generator: Adobe Illustrator 25.2.3, SVG Export Plug-In . SVG Version: 6.00 Build 0)  -->
<svg version="1.1" id="Calque_1" xmlns="http://www.w3.org/2000/svg" xmlns:xlink="http://www.w3.org/1999/xlink" x="0px" y="0px"
	 viewBox="0 0 279.3 81" style="enable-background:new 0 0 279.3 81;" xml:space="preserve">
<style type="text/css">
	.st0{fill:#469E78;}
</style>
<g>
	<path class="st0" d="M24.8,55.8c0,2.7-2.2,4.8-4.8,4.8c-0.7,0-1.4,0-2.1-0.1c-2.6-0.4-5.2-1.5-7-3.6c-1.6-1.8-2.7-4.7-2.7-7.2V29.6
		H4.8c-2.6,0-4.8-2.2-4.8-4.8C0,22.2,2.2,20,4.8,20h3.4V4.8C8.2,2.2,10.4,0,13,0c2.6,0,4.8,2.2,4.8,4.8V20h2.6
		c2.6,0,4.8,2.2,4.8,4.8c0,2.6-2.2,4.8-4.8,4.8h-2.6v19c0.2,0.6,0,1.6,0.6,2.1c0.4,0.4,1.1,0.3,1.7,0.3C22.7,51,24.8,53.2,24.8,55.8
		z"/>
	<path class="st0" d="M63.3,33.1c-1.8,1.9-4.8,2.1-6.8,0.2c-1.8-1.7-4.2-2.6-6.6-2.6c-5.4,0-9.9,4.6-9.9,10.3v15.1
		c0,2.6-2.2,4.8-4.8,4.8c-2.6,0-4.8-2.2-4.8-4.8V25.5c0-2.6,2.2-4.7,4.8-4.7c2.2,0,3.9,1.4,4.6,3.3c3-1.8,6.5-3,10.1-3
		c5,0,9.6,1.9,13.2,5.3C65,28.1,65.2,31.2,63.3,33.1z"/>
	<path class="st0" d="M100.2,43.5H75.6c1.1,4.6,5.2,8.1,10.1,8.1c2.6,0,6.3-1,8.4-3c1.9-1.8,5-1.8,6.8,0.1c1.9,1.8,1.8,5-0.1,6.8
		c-4.4,4.2-10.5,5.7-15.1,5.7c-11.1,0-20-8.9-20-20c0-10.9,8.9-20,20-20c1.2,0,2.3,0.1,3.5,0.3c5.4,1,10.1,4.4,12.9,9.2
		c1.3,2.2,2.7,5.2,2.6,7.8c0,0.7-0.3,1.5-0.6,2.3C103.5,42.2,102.1,43.5,100.2,43.5z M77,35.5h16.9c-1.6-3-4.6-4.8-8.1-4.8
		C82.1,30.7,78.9,32.5,77,35.5z"/>
	<path class="st0" d="M146.9,40.8v15.1c0,2.6-2.1,4.8-4.7,4.8c-2.7,0-4.8-2.2-4.8-4.8V40.8c0-5.7-4.2-10.2-9.2-10.2
		c-6.2,0-9.4,6.2-9.4,11.7v13.6c0,2.6-2.2,4.8-4.8,4.8c-2.6,0-4.8-2.2-4.8-4.8V25.4c0-2.6,2.2-4.8,4.8-4.8c2.1,0,3.8,1.4,4.5,3.3
		c2.9-1.8,6.2-2.9,9.7-2.9C138.5,21,146.9,29.9,146.9,40.8z"/>
	<path class="st0" d="M191.6,5.1v50.8c0,2.6-2.2,4.8-4.9,4.8c-2.2,0-4-1.4-4.6-3.4c-3.2,2.2-7.2,3.5-11.4,3.5
		c-11.1,0-20.2-9-20.2-20.2c0-11.1,9.1-20.2,20.2-20.2c4.2,0,8,1.3,11.3,3.4V5.1c0-2.6,2.2-4.9,4.8-4.9
		C189.4,0.2,191.6,2.5,191.6,5.1z M181.2,40.7c0-5.8-4.7-10.5-10.5-10.5c-5.8,0-10.5,4.7-10.5,10.5c0,5.8,4.7,10.5,10.5,10.5
		C176.5,51.2,181.2,46.5,181.2,40.7z"/>
	<path class="st0" d="M233.5,25.9v34.9c0,11.1-8.9,20.2-19.6,20.2c-5.8,0-11.1-2.6-14.9-7c-1.7-2-1.4-5,0.5-6.8
		c1.9-1.8,4.9-1.5,6.5,0.6c2,2.3,4.9,3.7,7.8,3.7c5.7,0,10.3-4.8,10.3-10.6v-3.3c-2.6,1.5-5.8,2.5-9.1,2.5
		c-10.1,0-18.3-8.8-18.3-19.6V26c0-2.6,2.1-4.8,4.6-4.8c2.6,0,4.6,2.2,4.6,4.8v14.3c0,5.5,4.1,10.1,9,10.1c5,0,9.1-4.6,9.1-10.1
		V25.9c0-2.6,2.2-4.8,4.6-4.8C231.5,21.1,233.5,23.2,233.5,25.9z"/>
	<path class="st0" d="M274.5,61h-29.4c-1.9,0-3.7-1.1-4.4-2.9c-0.8-1.8-0.4-3.8,1-5.2l21.6-22.4h-18.2c-2.6,0-4.8-2.2-4.8-4.8
		c0-2.6,2.2-4.8,4.8-4.8h29.4c1.9,0,3.7,1.2,4.4,3c0.8,1.8,0.4,3.8-1,5.1l-21.6,22.5h18.2c2.6,0,4.8,2.2,4.8,4.8
		C279.3,58.9,277.1,61,274.5,61z"/>
</g>
</svg>
